# xmcd
#
# Track frame offsets: 
#        150
#        19065
#        35095
#        48875
#        60702
#        77662
#        99525
#        118320
#        134995
#        152980
#        167542
#        186165
#        200497
#        218675
#        231465
#        260875
#        279132
#        294990
#        312440
#        322085
#
# Disc length: 4515 seconds
#
# Revision: 0
# Processed by: cddbd v1.5.2PL0 Copyright (c) Steve Scherf et al.
# Submitted via: ExactAudioCopy v1.1
#
DISCID=3411a114
DTITLE=Various Artist - Knuffelkerst - CD 1
DYEAR=2000
DGENRE=Chorus
TTITLE0=Céline Dion - The Christmas Song
TTITLE1=John Lennon and Yoko Ono - Happy Xmas
TTITLE2=Marc Anthony - Christmas Auld Lang Syne
TTITLE3=Spice Girls - Sleigh Ride
TTITLE4=Paul McCartney - Wonderful Christmas Time
TTITLE5=Gloria Estefan - Christmas Through Your Eyes
TTITLE6=3T - Endless Christmas
TTITLE7=Ann and Nancy Wilson - Here Is Christmas
TTITLE8=Chris Rea - Driving Home For Christmas
TTITLE9=Solid Harmonie - Give Love On Christmas Day
TTITLE10=Boyz II Men - Let It Snow
TTITLE11=Cyndi Lauper - December Child
TTITLE12=Ten Sharp - When The Snow Falls
TTITLE13=Cock Robin - Peace On Earth
TTITLE14=Donna Summer - Winter Melody
TTITLE15=Brian McKnight - Because Of His Love
TTITLE16=Suzanne Michaels - It Should Be Christmas Everyday
TTITLE17=New Kids On The Block - This One's For The Children
TTITLE18=Art Garfunkel - O Come All Ye Faithful
TTITLE19=Sinead O'Connor - Silent Night
EXTD=
EXTT0=
EXTT1=
EXTT2=
EXTT3=
EXTT4=
EXTT5=
EXTT6=
EXTT7=
EXTT8=
EXTT9=
EXTT10=
EXTT11=
EXTT12=
EXTT13=
EXTT14=
EXTT15=
EXTT16=
EXTT17=
EXTT18=
EXTT19=
PLAYORDER=
